<svg width="120" height="580" viewBox="0 0 120 580" fill="none" xmlns="http://www.w3.org/2000/svg">
<rect width="120" height="580" fill="none"/>
<path d="M20 120V60V20L60 60L100 20V62.5V120L60 160L20 120Z" stroke="black"/>
<path d="M20 220V160V120L60 160L100 120V162.5V220L60 260L20 220Z" stroke="black"/>
<path d="M20 320V260V220L60 260L100 220V262.5V320L60 360L20 320Z" stroke="black"/>
<path d="M20 520V460V420L60 460L100 420V462.5V520L60 560L20 520Z" stroke="black"/>
<path d="M20 420V360V320L60 360L100 320V362.5V420L60 460L20 420Z" fill="black" stroke="black"/>
<path d="M55.6662 87.1818C55.4957 85.7424 54.8045 84.625 53.5923 83.8295C52.3802 83.0341 50.8935 82.6364 49.1321 82.6364C47.8442 82.6364 46.7173 82.8447 45.7514 83.2614C44.795 83.678 44.0469 84.2509 43.5071 84.9801C42.9768 85.7093 42.7116 86.5379 42.7116 87.4659C42.7116 88.2424 42.8963 88.91 43.2656 89.4688C43.6444 90.018 44.1274 90.4773 44.7145 90.8466C45.3016 91.2064 45.9171 91.5047 46.5611 91.7415C47.205 91.9687 47.7969 92.1534 48.3366 92.2955L51.2912 93.0909C52.0488 93.2898 52.8916 93.5644 53.8196 93.9148C54.7571 94.2652 55.652 94.7434 56.5043 95.3494C57.366 95.946 58.0762 96.7131 58.6349 97.6506C59.1937 98.5881 59.473 99.7386 59.473 101.102C59.473 102.674 59.0611 104.095 58.2372 105.364C57.4228 106.633 56.2296 107.641 54.6577 108.389C53.0952 109.137 51.1965 109.511 48.9616 109.511C46.8783 109.511 45.0743 109.175 43.5497 108.503C42.0346 107.83 40.8414 106.893 39.9702 105.69C39.1084 104.488 38.6207 103.091 38.5071 101.5H42.1435C42.2382 102.598 42.6075 103.508 43.2514 104.227C43.9048 104.937 44.7287 105.468 45.723 105.818C46.7268 106.159 47.8063 106.33 48.9616 106.33C50.3063 106.33 51.5137 106.112 52.5838 105.676C53.6539 105.231 54.5014 104.616 55.1264 103.83C55.7514 103.034 56.0639 102.106 56.0639 101.045C56.0639 100.08 55.794 99.2936 55.2543 98.6875C54.7145 98.0814 54.0043 97.589 53.1236 97.2102C52.2429 96.8314 51.2912 96.5 50.2685 96.2159L46.6889 95.1932C44.4162 94.5398 42.617 93.607 41.2912 92.3949C39.9654 91.1828 39.3026 89.5966 39.3026 87.6364C39.3026 86.0076 39.7429 84.5871 40.6236 83.375C41.5137 82.1534 42.7069 81.2064 44.2031 80.5341C45.7088 79.8523 47.3897 79.5114 49.2457 79.5114C51.1207 79.5114 52.7874 79.8475 54.2457 80.5199C55.7041 81.1828 56.8594 82.0919 57.7116 83.2472C58.5734 84.4025 59.0279 85.714 59.0753 87.1818H55.6662ZM63.5831 109V95.9091H65.5945V109H63.5831ZM64.6058 93.7273C64.2138 93.7273 63.8757 93.5938 63.5916 93.3267C63.3132 93.0597 63.174 92.7386 63.174 92.3636C63.174 91.9886 63.3132 91.6676 63.5916 91.4006C63.8757 91.1335 64.2138 91 64.6058 91C64.9979 91 65.3331 91.1335 65.6115 91.4006C65.8956 91.6676 66.0376 91.9886 66.0376 92.3636C66.0376 92.7386 65.8956 93.0597 65.6115 93.3267C65.3331 93.5938 64.9979 93.7273 64.6058 93.7273ZM74.9716 95.9091V97.6136H68.1875V95.9091H74.9716ZM70.1648 92.7727H72.1761V105.25C72.1761 105.818 72.2585 106.244 72.4233 106.528C72.5938 106.807 72.8097 106.994 73.071 107.091C73.3381 107.182 73.6193 107.227 73.9148 107.227C74.1364 107.227 74.3182 107.216 74.4602 107.193C74.6023 107.165 74.7159 107.142 74.8011 107.125L75.2102 108.932C75.0739 108.983 74.8835 109.034 74.6392 109.085C74.3949 109.142 74.0852 109.17 73.7102 109.17C73.142 109.17 72.5852 109.048 72.0398 108.804C71.5 108.56 71.0511 108.188 70.6932 107.688C70.3409 107.188 70.1648 106.557 70.1648 105.795V92.7727ZM79.4631 109.136C79.0426 109.136 78.6818 108.986 78.3807 108.685C78.0795 108.384 77.929 108.023 77.929 107.602C77.929 107.182 78.0795 106.821 78.3807 106.52C78.6818 106.219 79.0426 106.068 79.4631 106.068C79.8835 106.068 80.2443 106.219 80.5455 106.52C80.8466 106.821 80.9972 107.182 80.9972 107.602C80.9972 107.881 80.9261 108.136 80.7841 108.369C80.6477 108.602 80.4631 108.79 80.2301 108.932C80.0028 109.068 79.7472 109.136 79.4631 109.136Z" fill="black"/>
<path d="M33.6143 214H29.9212L40.603 184.909H44.2393L54.9212 214H51.228L42.5348 189.511H42.3075L33.6143 214ZM34.978 202.636H49.8643V205.761H34.978V202.636ZM59.782 206.125V214H57.7706V200.909H59.7138V202.955H59.8842C60.1911 202.29 60.657 201.756 61.282 201.352C61.907 200.943 62.7138 200.739 63.7024 200.739C64.5888 200.739 65.3643 200.92 66.0291 201.284C66.6939 201.642 67.2109 202.188 67.5803 202.92C67.9496 203.648 68.1342 204.568 68.1342 205.682V214H66.1229V205.818C66.1229 204.79 65.8558 203.989 65.3217 203.415C64.7876 202.835 64.0547 202.545 63.1229 202.545C62.4808 202.545 61.907 202.685 61.4013 202.963C60.9013 203.241 60.5064 203.648 60.2166 204.182C59.9268 204.716 59.782 205.364 59.782 206.125ZM75.6619 214.307C74.8324 214.307 74.0795 214.151 73.4034 213.838C72.7273 213.52 72.1903 213.062 71.7926 212.466C71.3949 211.864 71.196 211.136 71.196 210.284C71.196 209.534 71.3438 208.926 71.6392 208.46C71.9347 207.989 72.3295 207.619 72.8239 207.352C73.3182 207.085 73.8636 206.886 74.4602 206.756C75.0625 206.619 75.6676 206.511 76.2756 206.432C77.071 206.33 77.7159 206.253 78.2102 206.202C78.7102 206.145 79.0739 206.051 79.3011 205.92C79.5341 205.79 79.6506 205.562 79.6506 205.239V205.17C79.6506 204.33 79.4205 203.676 78.9602 203.21C78.5057 202.744 77.8153 202.511 76.8892 202.511C75.929 202.511 75.1761 202.722 74.6307 203.142C74.0852 203.562 73.7017 204.011 73.4801 204.489L71.571 203.807C71.9119 203.011 72.3665 202.392 72.9347 201.949C73.5085 201.5 74.1335 201.187 74.8097 201.011C75.4915 200.83 76.1619 200.739 76.821 200.739C77.2415 200.739 77.7244 200.79 78.2699 200.892C78.821 200.989 79.3523 201.19 79.8636 201.497C80.3807 201.804 80.8097 202.267 81.1506 202.886C81.4915 203.506 81.6619 204.335 81.6619 205.375V214H79.6506V212.227H79.5483C79.4119 212.511 79.1847 212.815 78.8665 213.139C78.5483 213.463 78.125 213.739 77.5966 213.966C77.0682 214.193 76.4233 214.307 75.6619 214.307ZM75.9688 212.5C76.7642 212.5 77.4347 212.344 77.9801 212.031C78.5313 211.719 78.946 211.315 79.2244 210.821C79.5085 210.327 79.6506 209.807 79.6506 209.261V207.42C79.5653 207.523 79.3778 207.616 79.0881 207.702C78.804 207.781 78.4744 207.852 78.0994 207.915C77.7301 207.972 77.3693 208.023 77.017 208.068C76.6705 208.108 76.3892 208.142 76.1733 208.17C75.6506 208.239 75.1619 208.349 74.7074 208.503C74.2585 208.651 73.8949 208.875 73.6165 209.176C73.3438 209.472 73.2074 209.875 73.2074 210.386C73.2074 211.085 73.4659 211.614 73.983 211.972C74.5057 212.324 75.1676 212.5 75.9688 212.5ZM86.799 214.136C86.3786 214.136 86.0178 213.986 85.7166 213.685C85.4155 213.384 85.2649 213.023 85.2649 212.602C85.2649 212.182 85.4155 211.821 85.7166 211.52C86.0178 211.219 86.3786 211.068 86.799 211.068C87.2195 211.068 87.5803 211.219 87.8814 211.52C88.1825 211.821 88.3331 212.182 88.3331 212.602C88.3331 212.881 88.2621 213.136 88.12 213.369C87.9837 213.602 87.799 213.79 87.5661 213.932C87.3388 214.068 87.0831 214.136 86.799 214.136Z" fill="black"/>
<path d="M32.2884 314V284.909H42.4588C44.4853 284.909 46.1567 285.259 47.473 285.96C48.7893 286.652 49.7694 287.584 50.4134 288.759C51.0573 289.923 51.3793 291.216 51.3793 292.636C51.3793 293.886 51.1567 294.919 50.7116 295.733C50.276 296.547 49.6984 297.191 48.9787 297.665C48.2685 298.138 47.4967 298.489 46.6634 298.716V299C47.5535 299.057 48.4484 299.369 49.348 299.938C50.2476 300.506 51.0005 301.32 51.6065 302.381C52.2126 303.441 52.5156 304.739 52.5156 306.273C52.5156 307.731 52.1842 309.043 51.5213 310.207C50.8584 311.372 49.812 312.295 48.3821 312.977C46.9522 313.659 45.0914 314 42.7997 314H32.2884ZM35.8111 310.875H42.7997C45.1009 310.875 46.7344 310.43 47.7003 309.54C48.6757 308.64 49.1634 307.551 49.1634 306.273C49.1634 305.288 48.9124 304.379 48.4105 303.545C47.9086 302.703 47.1937 302.03 46.2656 301.528C45.3376 301.017 44.2391 300.761 42.9702 300.761H35.8111V310.875ZM35.8111 297.693H42.3452C43.4058 297.693 44.3622 297.485 45.2145 297.068C46.0762 296.652 46.758 296.064 47.2599 295.307C47.7713 294.549 48.027 293.659 48.027 292.636C48.027 291.358 47.5819 290.274 46.6918 289.384C45.8016 288.484 44.3906 288.034 42.4588 288.034H35.8111V297.693ZM56.6222 314V300.909H58.6335V314H56.6222ZM57.6449 298.727C57.2528 298.727 56.9148 298.594 56.6307 298.327C56.3523 298.06 56.2131 297.739 56.2131 297.364C56.2131 296.989 56.3523 296.668 56.6307 296.401C56.9148 296.134 57.2528 296 57.6449 296C58.0369 296 58.3722 296.134 58.6506 296.401C58.9347 296.668 59.0767 296.989 59.0767 297.364C59.0767 297.739 58.9347 298.06 58.6506 298.327C58.3722 298.594 58.0369 298.727 57.6449 298.727ZM66.1697 314.307C65.3402 314.307 64.5874 314.151 63.9112 313.838C63.2351 313.52 62.6982 313.062 62.3004 312.466C61.9027 311.864 61.7038 311.136 61.7038 310.284C61.7038 309.534 61.8516 308.926 62.147 308.46C62.4425 307.989 62.8374 307.619 63.3317 307.352C63.826 307.085 64.3714 306.886 64.968 306.756C65.5703 306.619 66.1754 306.511 66.7834 306.432C67.5788 306.33 68.2237 306.253 68.718 306.202C69.218 306.145 69.5817 306.051 69.8089 305.92C70.0419 305.79 70.1584 305.562 70.1584 305.239V305.17C70.1584 304.33 69.9283 303.676 69.468 303.21C69.0135 302.744 68.3232 302.511 67.397 302.511C66.4368 302.511 65.6839 302.722 65.1385 303.142C64.593 303.562 64.2095 304.011 63.9879 304.489L62.0788 303.807C62.4197 303.011 62.8743 302.392 63.4425 301.949C64.0163 301.5 64.6413 301.187 65.3175 301.011C65.9993 300.83 66.6697 300.739 67.3288 300.739C67.7493 300.739 68.2322 300.79 68.7777 300.892C69.3288 300.989 69.8601 301.19 70.3714 301.497C70.8885 301.804 71.3175 302.267 71.6584 302.886C71.9993 303.506 72.1697 304.335 72.1697 305.375V314H70.1584V312.227H70.0561C69.9197 312.511 69.6925 312.815 69.3743 313.139C69.0561 313.463 68.6328 313.739 68.1044 313.966C67.576 314.193 66.9311 314.307 66.1697 314.307ZM66.4766 312.5C67.272 312.5 67.9425 312.344 68.4879 312.031C69.0391 311.719 69.4538 311.315 69.7322 310.821C70.0163 310.327 70.1584 309.807 70.1584 309.261V307.42C70.0732 307.523 69.8857 307.616 69.5959 307.702C69.3118 307.781 68.9822 307.852 68.6072 307.915C68.2379 307.972 67.8771 308.023 67.5249 308.068C67.1783 308.108 66.897 308.142 66.6811 308.17C66.1584 308.239 65.6697 308.349 65.2152 308.503C64.7663 308.651 64.4027 308.875 64.1243 309.176C63.8516 309.472 63.7152 309.875 63.7152 310.386C63.7152 311.085 63.9737 311.614 64.4908 311.972C65.0135 312.324 65.6754 312.5 66.4766 312.5ZM75.8409 314V300.909H77.8523V314H75.8409ZM76.8636 298.727C76.4716 298.727 76.1335 298.594 75.8494 298.327C75.571 298.06 75.4318 297.739 75.4318 297.364C75.4318 296.989 75.571 296.668 75.8494 296.401C76.1335 296.134 76.4716 296 76.8636 296C77.2557 296 77.5909 296.134 77.8693 296.401C78.1534 296.668 78.2955 296.989 78.2955 297.364C78.2955 297.739 78.1534 298.06 77.8693 298.327C77.5909 298.594 77.2557 298.727 76.8636 298.727ZM90.8089 303.841L89.0021 304.352C88.8885 304.051 88.7209 303.759 88.4993 303.474C88.2834 303.185 87.9879 302.946 87.6129 302.759C87.2379 302.571 86.7578 302.477 86.1726 302.477C85.3714 302.477 84.7038 302.662 84.1697 303.031C83.6413 303.395 83.3771 303.858 83.3771 304.42C83.3771 304.92 83.5589 305.315 83.9226 305.605C84.2862 305.895 84.8544 306.136 85.6271 306.33L87.5703 306.807C88.7408 307.091 89.6129 307.526 90.1868 308.111C90.7607 308.69 91.0476 309.437 91.0476 310.352C91.0476 311.102 90.8317 311.773 90.3999 312.364C89.9737 312.955 89.3771 313.42 88.6101 313.761C87.843 314.102 86.951 314.273 85.9339 314.273C84.5987 314.273 83.4936 313.983 82.6186 313.403C81.7436 312.824 81.1896 311.977 80.9567 310.864L82.8658 310.386C83.0476 311.091 83.3913 311.619 83.897 311.972C84.4084 312.324 85.076 312.5 85.8999 312.5C86.8374 312.5 87.5817 312.301 88.1328 311.903C88.6896 311.5 88.968 311.017 88.968 310.455C88.968 310 88.8089 309.619 88.4908 309.312C88.1726 309 87.6839 308.767 87.0249 308.614L84.843 308.102C83.6442 307.818 82.7635 307.378 82.201 306.781C81.6442 306.179 81.3658 305.426 81.3658 304.523C81.3658 303.784 81.5732 303.131 81.9879 302.562C82.4084 301.994 82.9794 301.548 83.701 301.224C84.4283 300.901 85.2521 300.739 86.1726 300.739C87.468 300.739 88.4851 301.023 89.2237 301.591C89.968 302.159 90.4964 302.909 90.8089 303.841Z" fill="black"/>
<path d="M57.8065 405.818V405.648C57.8254 403.839 58.0148 402.4 58.3746 401.33C58.7345 400.259 59.2459 399.393 59.9087 398.73C60.5716 398.067 61.3671 397.456 62.2951 396.898C62.8538 396.557 63.3557 396.154 63.8008 395.69C64.2459 395.217 64.5962 394.672 64.8519 394.057C65.1171 393.441 65.2496 392.759 65.2496 392.011C65.2496 391.083 65.0318 390.278 64.5962 389.597C64.1606 388.915 63.5782 388.389 62.8491 388.02C62.1199 387.651 61.3103 387.466 60.4201 387.466C59.6436 387.466 58.8955 387.627 58.1758 387.949C57.4561 388.271 56.8548 388.777 56.3718 389.469C55.8888 390.16 55.6095 391.064 55.5337 392.182H51.9542C52.0299 390.572 52.4466 389.194 53.2042 388.048C53.9712 386.902 54.9798 386.027 56.2298 385.42C57.4892 384.814 58.886 384.511 60.4201 384.511C62.0868 384.511 63.5356 384.843 64.7667 385.506C66.0072 386.169 66.9637 387.078 67.636 388.233C68.3178 389.388 68.6587 390.705 68.6587 392.182C68.6587 393.223 68.4978 394.166 68.1758 395.009C67.8633 395.851 67.4087 396.604 66.8121 397.267C66.225 397.93 65.5148 398.517 64.6815 399.028C63.8481 399.549 63.1805 400.098 62.6786 400.676C62.1767 401.244 61.8121 401.921 61.5849 402.707C61.3576 403.493 61.2345 404.473 61.2156 405.648V405.818H57.8065ZM59.6246 414.227C58.9239 414.227 58.3226 413.976 57.8207 413.474C57.3188 412.973 57.0678 412.371 57.0678 411.67C57.0678 410.97 57.3188 410.368 57.8207 409.866C58.3226 409.365 58.9239 409.114 59.6246 409.114C60.3254 409.114 60.9267 409.365 61.4286 409.866C61.9305 410.368 62.1815 410.97 62.1815 411.67C62.1815 412.134 62.0631 412.561 61.8263 412.949C61.5991 413.337 61.2913 413.65 60.9031 413.886C60.5243 414.114 60.0981 414.227 59.6246 414.227Z" fill="white"/>
<path d="M34.6712 514V484.909H44.5007C46.7734 484.909 48.639 485.297 50.0973 486.074C51.5556 486.841 52.6352 487.897 53.3359 489.241C54.0367 490.586 54.3871 492.116 54.3871 493.83C54.3871 495.544 54.0367 497.063 53.3359 498.389C52.6352 499.715 51.5604 500.757 50.1115 501.514C48.6626 502.262 46.8113 502.636 44.5575 502.636H36.603V499.455H44.4439C45.9969 499.455 47.2469 499.227 48.1939 498.773C49.1503 498.318 49.8416 497.674 50.2678 496.841C50.7034 495.998 50.9212 494.994 50.9212 493.83C50.9212 492.665 50.7034 491.647 50.2678 490.776C49.8322 489.904 49.1361 489.232 48.1797 488.759C47.2232 488.276 45.959 488.034 44.3871 488.034H38.1939V514H34.6712ZM48.3643 500.932L55.5234 514H51.4325L44.3871 500.932H48.3643ZM64.0639 514.273C62.8026 514.273 61.7145 513.994 60.7997 513.438C59.8906 512.875 59.1889 512.091 58.6946 511.085C58.206 510.074 57.9616 508.898 57.9616 507.557C57.9616 506.216 58.206 505.034 58.6946 504.011C59.1889 502.983 59.8764 502.182 60.7571 501.608C61.6435 501.028 62.6776 500.739 63.8594 500.739C64.5412 500.739 65.2145 500.852 65.8793 501.08C66.544 501.307 67.1491 501.676 67.6946 502.188C68.2401 502.693 68.6747 503.364 68.9986 504.199C69.3224 505.034 69.4844 506.062 69.4844 507.284V508.136H59.3935V506.398H67.4389C67.4389 505.659 67.2912 505 66.9957 504.42C66.706 503.841 66.2912 503.384 65.7514 503.048C65.2173 502.713 64.5866 502.545 63.8594 502.545C63.0582 502.545 62.3651 502.744 61.7798 503.142C61.2003 503.534 60.7543 504.045 60.4418 504.676C60.1293 505.307 59.973 505.983 59.973 506.705V507.864C59.973 508.852 60.1435 509.69 60.4844 510.378C60.831 511.06 61.3111 511.58 61.9247 511.938C62.5384 512.29 63.2514 512.466 64.0639 512.466C64.5923 512.466 65.0696 512.392 65.4957 512.244C65.9276 512.091 66.2997 511.864 66.6122 511.562C66.9247 511.256 67.1662 510.875 67.3366 510.42L69.2798 510.966C69.0753 511.625 68.7315 512.205 68.2486 512.705C67.7656 513.199 67.169 513.585 66.4588 513.864C65.7486 514.136 64.9503 514.273 64.0639 514.273ZM81.8168 503.841L80.0099 504.352C79.8963 504.051 79.7287 503.759 79.5071 503.474C79.2912 503.185 78.9957 502.946 78.6207 502.759C78.2457 502.571 77.7656 502.477 77.1804 502.477C76.3793 502.477 75.7116 502.662 75.1776 503.031C74.6491 503.395 74.3849 503.858 74.3849 504.42C74.3849 504.92 74.5668 505.315 74.9304 505.605C75.294 505.895 75.8622 506.136 76.6349 506.33L78.5781 506.807C79.7486 507.091 80.6207 507.526 81.1946 508.111C81.7685 508.69 82.0554 509.437 82.0554 510.352C82.0554 511.102 81.8395 511.773 81.4077 512.364C80.9815 512.955 80.3849 513.42 79.6179 513.761C78.8509 514.102 77.9588 514.273 76.9418 514.273C75.6065 514.273 74.5014 513.983 73.6264 513.403C72.7514 512.824 72.1974 511.977 71.9645 510.864L73.8736 510.386C74.0554 511.091 74.3991 511.619 74.9048 511.972C75.4162 512.324 76.0838 512.5 76.9077 512.5C77.8452 512.5 78.5895 512.301 79.1406 511.903C79.6974 511.5 79.9759 511.017 79.9759 510.455C79.9759 510 79.8168 509.619 79.4986 509.312C79.1804 509 78.6918 508.767 78.0327 508.614L75.8509 508.102C74.652 507.818 73.7713 507.378 73.2088 506.781C72.652 506.179 72.3736 505.426 72.3736 504.523C72.3736 503.784 72.581 503.131 72.9957 502.562C73.4162 501.994 73.9872 501.548 74.7088 501.224C75.4361 500.901 76.2599 500.739 77.1804 500.739C78.4759 500.739 79.4929 501.023 80.2315 501.591C80.9759 502.159 81.5043 502.909 81.8168 503.841ZM86.549 514.136C86.1286 514.136 85.7678 513.986 85.4666 513.685C85.1655 513.384 85.0149 513.023 85.0149 512.602C85.0149 512.182 85.1655 511.821 85.4666 511.52C85.7678 511.219 86.1286 511.068 86.549 511.068C86.9695 511.068 87.3303 511.219 87.6314 511.52C87.9325 511.821 88.0831 512.182 88.0831 512.602C88.0831 512.881 88.0121 513.136 87.87 513.369C87.7337 513.602 87.549 513.79 87.3161 513.932C87.0888 514.068 86.8331 514.136 86.549 514.136Z" fill="black"/>
</svg>
