<svg width="120" height="580" viewBox="0 0 120 580" fill="none" xmlns="http://www.w3.org/2000/svg">
<rect width="120" height="580" fill="none"/>
<path d="M20 120V60V20L60 60L100 20V62.5V120L60 160L20 120Z" stroke="black"/>
<path d="M20 220V160V120L60 160L100 120V162.5V220L60 260L20 220Z" stroke="black"/>
<path d="M20 320V260V220L60 260L100 220V262.5V320L60 360L20 320Z" stroke="black"/>
<path d="M20 520V460V420L60 460L100 420V462.5V520L60 560L20 520Z" stroke="black"/>
<path d="M20 420V360V320L60 360L100 320V362.5V420L60 460L20 420Z" stroke="black"/>
<path d="M48.9403 111H44.5085L57.3267 76.0909H61.6903L74.5085 111H70.0767L59.6449 81.6136H59.3722L48.9403 111ZM50.5767 97.3636H68.4403V101.114H50.5767V97.3636Z" fill="black"/>
<path d="M48.1179 216V181.091H60.3224C62.7543 181.091 64.7599 181.511 66.3395 182.352C67.919 183.182 69.0952 184.301 69.8679 185.71C70.6406 187.108 71.027 188.659 71.027 190.364C71.027 191.864 70.7599 193.102 70.2259 194.08C69.7031 195.057 69.0099 195.83 68.1463 196.398C67.294 196.966 66.3679 197.386 65.3679 197.659V198C66.4361 198.068 67.5099 198.443 68.5895 199.125C69.669 199.807 70.5724 200.784 71.2997 202.057C72.027 203.33 72.3906 204.886 72.3906 206.727C72.3906 208.477 71.9929 210.051 71.1974 211.449C70.402 212.847 69.1463 213.955 67.4304 214.773C65.7145 215.591 63.4815 216 60.7315 216H48.1179ZM52.3452 212.25H60.7315C63.4929 212.25 65.4531 211.716 66.6122 210.648C67.7827 209.568 68.3679 208.261 68.3679 206.727C68.3679 205.545 68.0668 204.455 67.4645 203.455C66.8622 202.443 66.0043 201.636 64.8906 201.034C63.777 200.42 62.4588 200.114 60.9361 200.114H52.3452V212.25ZM52.3452 196.432H60.1861C61.4588 196.432 62.6065 196.182 63.6293 195.682C64.6634 195.182 65.4815 194.477 66.0838 193.568C66.6974 192.659 67.0043 191.591 67.0043 190.364C67.0043 188.83 66.4702 187.528 65.402 186.46C64.3338 185.381 62.6406 184.841 60.3224 184.841H52.3452V196.432Z" fill="black"/>
<path d="M49.9403 281.091L60.304 310.477H60.7131L71.0767 281.091H75.5085L62.6903 316H58.3267L45.5085 281.091H49.9403Z" fill="black"/>
<path d="M75.3572 392H71.13C70.88 390.784 70.4425 389.716 69.8175 388.795C69.2038 387.875 68.4538 387.102 67.5675 386.477C66.6925 385.841 65.7209 385.364 64.6527 385.045C63.5845 384.727 62.4709 384.568 61.3118 384.568C59.1982 384.568 57.2834 385.102 55.5675 386.17C53.8629 387.239 52.505 388.812 51.4936 390.892C50.4936 392.972 49.9936 395.523 49.9936 398.545C49.9936 401.568 50.4936 404.119 51.4936 406.199C52.505 408.278 53.8629 409.852 55.5675 410.92C57.2834 411.989 59.1982 412.523 61.3118 412.523C62.4709 412.523 63.5845 412.364 64.6527 412.045C65.7209 411.727 66.6925 411.256 67.5675 410.631C68.4538 409.994 69.2038 409.216 69.8175 408.295C70.4425 407.364 70.88 406.295 71.13 405.091H75.3572C75.0391 406.875 74.4595 408.472 73.6186 409.881C72.7777 411.29 71.7322 412.489 70.4822 413.477C69.2322 414.455 67.8288 415.199 66.272 415.71C64.7266 416.222 63.0732 416.477 61.3118 416.477C58.3345 416.477 55.6868 415.75 53.3686 414.295C51.0504 412.841 49.2266 410.773 47.897 408.091C46.5675 405.409 45.9027 402.227 45.9027 398.545C45.9027 394.864 46.5675 391.682 47.897 389C49.2266 386.318 51.0504 384.25 53.3686 382.795C55.6868 381.341 58.3345 380.614 61.3118 380.614C63.0732 380.614 64.7266 380.869 66.272 381.381C67.8288 381.892 69.2322 382.642 70.4822 383.631C71.7322 384.608 72.7777 385.801 73.6186 387.21C74.4595 388.608 75.0391 390.205 75.3572 392Z" fill="black"/>
<path d="M75.3572 492H71.13C70.88 490.784 70.4425 489.716 69.8175 488.795C69.2038 487.875 68.4538 487.102 67.5675 486.477C66.6925 485.841 65.7209 485.364 64.6527 485.045C63.5845 484.727 62.4709 484.568 61.3118 484.568C59.1982 484.568 57.2834 485.102 55.5675 486.17C53.8629 487.239 52.505 488.812 51.4936 490.892C50.4936 492.972 49.9936 495.523 49.9936 498.545C49.9936 501.568 50.4936 504.119 51.4936 506.199C52.505 508.278 53.8629 509.852 55.5675 510.92C57.2834 511.989 59.1982 512.523 61.3118 512.523C62.4709 512.523 63.5845 512.364 64.6527 512.045C65.7209 511.727 66.6925 511.256 67.5675 510.631C68.4538 509.994 69.2038 509.216 69.8175 508.295C70.4425 507.364 70.88 506.295 71.13 505.091H75.3572C75.0391 506.875 74.4595 508.472 73.6186 509.881C72.7777 511.29 71.7322 512.489 70.4822 513.477C69.2322 514.455 67.8288 515.199 66.272 515.71C64.7266 516.222 63.0732 516.477 61.3118 516.477C58.3345 516.477 55.6868 515.75 53.3686 514.295C51.0504 512.841 49.2266 510.773 47.897 508.091C46.5675 505.409 45.9027 502.227 45.9027 498.545C45.9027 494.864 46.5675 491.682 47.897 489C49.2266 486.318 51.0504 484.25 53.3686 482.795C55.6868 481.341 58.3345 480.614 61.3118 480.614C63.0732 480.614 64.7266 480.869 66.272 481.381C67.8288 481.892 69.2322 482.642 70.4822 483.631C71.7322 484.608 72.7777 485.801 73.6186 487.21C74.4595 488.608 75.0391 490.205 75.3572 492Z" fill="black"/>
</svg>
